<svg width="15" height="15" viewBox="0 0 15 15" fill="none" xmlns="http://www.w3.org/2000/svg">
<path d="M13.9226 12.6353L8.75535 7.45745L13.8946 2.30795C14.3137 1.88778 14.3137 1.20667 13.8946 0.786726C13.4753 0.366786 12.7958 0.366786 12.3764 0.786726L7.23715 5.93623L2.0981 0.786726C1.67877 0.366786 0.999239 0.366786 0.579902 0.786726C0.160566 1.2069 0.160566 1.88801 0.579902 2.30795L5.71895 7.45745L0.551197 12.6353C0.13186 13.0554 0.13186 13.7363 0.551197 14.1565C0.760865 14.3666 1.03552 14.4715 1.31041 14.4715C1.5853 14.4715 1.85996 14.3666 2.06963 14.1565L7.23715 8.97867L12.4045 14.1565C12.6141 14.3666 12.8888 14.4715 13.1637 14.4715C13.4386 14.4715 13.7132 14.3666 13.9229 14.1565C14.3418 13.7365 14.3418 13.0554 13.9226 12.6353Z" fill="#AAAAAA"/>
</svg>
